{
  "accessors": [
    {
      "bufferView": 2,
      "componentType": 5126,
      "count": 18426,
      "max": [
        0.23308199644088745,
        0.11534000188112259,
        0.40057399868965149
      ],
      "min": [
        -0.23308199644088745,
        -0.33762499690055847,
        -0.05329899862408638
      ],
      "type": "VEC3"
    },
    {
      "bufferView": 2,
      "byteOffset": 221112,
      "componentType": 5126,
      "count": 18426,
      "max": [
        1,
        1,
        1
      ],
      "min": [
        -1,
        -1,
        -1
      ],
      "type": "VEC3"
    },
    {
      "bufferView": 3,
      "componentType": 5126,
      "count": 18426,
      "max": [
        0.99990731477737427,
        0.99962496757507324,
        0.9999956488609314,
        1
      ],
      "min": [
        -0.9999052882194519,
        -0.99962198734283447,
        -0.99999594688415527,
        -1
      ],
      "type": "VEC4"
    },
    {
      "bufferView": 1,
      "componentType": 5126,
      "count": 18426,
      "max": [
        1.0107500553131104,
        0.91740000247955322
      ],
      "min": [
        0.0019531298894435167,
        0.0019531298894435167
      ],
      "type": "VEC2"
    },
    {
      "bufferView": 0,
      "componentType": 5125,
      "count": 101346,
      "max": [
        18425
      ],
      "min": [
        0
      ],
      "type": "SCALAR"
    },
    {
      "bufferView": 2,
      "byteOffset": 442224,
      "componentType": 5126,
      "count": 10738,
      "max": [
        1,
        0.33762499690055847,
        0.27974599599838257
      ],
      "min": [
        -1,
        -0.093367598950862885,
        -0.40057399868965149
      ],
      "type": "VEC3"
    },
    {
      "bufferView": 2,
      "byteOffset": 571080,
      "componentType": 5126,
      "count": 10738,
      "max": [
        0.95222926139831543,
        0.991416335105896,
        0.99829912185668945
      ],
      "min": [
        -0.95223665237426758,
        -0.99930936098098755,
        -0.99775761365890503
      ],
      "type": "VEC3"
    },
    {
      "bufferView": 3,
      "byteOffset": 294816,
      "componentType": 5126,
      "count": 10738,
      "max": [
        0.99916970729827881,
        0.54781168699264526,
        0.92249983549118042,
        1
      ],
      "min": [
        -0.99951130151748657,
        -0.82819592952728271,
        -0.99997949600219727,
        -1
      ],
      "type": "VEC4"
    },
    {
      "bufferView": 1,
      "byteOffset": 147408,
      "componentType": 5126,
      "count": 10738,
      "max": [
        0.97570598125457764,
        0.85076498985290527
      ],
      "min": [
        0.42527499794960022,
        0.63814800977706909
      ],
      "type": "VEC2"
    },
    {
      "bufferView": 0,
      "byteOffset": 405384,
      "componentType": 5125,
      "count": 41058,
      "max": [
        10737
      ],
      "min": [
        0
      ],
      "type": "SCALAR"
    }
  ],
  "asset": {
    "extras": {
      "author": "Abdelrahman mamdouh (https://sketchfab.com/abdo.artist2)",
      "license": "CC-BY-4.0 (http://creativecommons.org/licenses/by/4.0/)",
      "source": "https://sketchfab.com/3d-models/golden-snitch-harry-potter-ef6d102242004670b2974f53dc6c77a1",
      "title": "Golden Snitch [ harry potter ]"
    },
    "generator": "Sketchfab-9.55.1",
    "version": "2.0"
  },
  "bufferViews": [
    {
      "buffer": 0,
      "byteLength": 569616,
      "byteOffset": 0,
      "name": "floatBufferViews",
      "target": 34963
    },
    {
      "buffer": 0,
      "byteLength": 233312,
      "byteOffset": 569616,
      "byteStride": 8,
      "name": "floatBufferViews",
      "target": 34962
    },
    {
      "buffer": 0,
      "byteLength": 699936,
      "byteOffset": 802928,
      "byteStride": 12,
      "name": "floatBufferViews",
      "target": 34962
    },
    {
      "buffer": 0,
      "byteLength": 466624,
      "byteOffset": 1502864,
      "byteStride": 16,
      "name": "floatBufferViews",
      "target": 34962
    }
  ],
  "buffers": [
    {
      "byteLength": 1969488,
      "uri": "scene.bin"
    }
  ],
  "images": [
    {
      "uri": "textures/DefaultMaterial_baseColor.jpeg"
    },
    {
      "uri": "textures/DefaultMaterial_metallicRoughness.png"
    },
    {
      "uri": "textures/DefaultMaterial_normal.png"
    },
    {
      "uri": "textures/gold_baseColor.jpeg"
    },
    {
      "uri": "textures/gold_metallicRoughness.png"
    },
    {
      "uri": "textures/gold_normal.png"
    }
  ],
  "materials": [
    {
      "doubleSided": true,
      "name": "DefaultMaterial",
      "normalTexture": {
        "index": 2,
        "scale": 1,
        "texCoord": 0
      },
      "occlusionTexture": {
        "index": 1,
        "strength": 1,
        "texCoord": 0
      },
      "pbrMetallicRoughness": {
        "baseColorFactor": [
          1,
          1,
          1,
          1
        ],
        "baseColorTexture": {
          "index": 0,
          "texCoord": 0
        },
        "metallicFactor": 1,
        "metallicRoughnessTexture": {
          "index": 1,
          "texCoord": 0
        },
        "roughnessFactor": 1
      }
    },
    {
      "doubleSided": true,
      "name": "gold",
      "normalTexture": {
        "index": 5,
        "scale": 1,
        "texCoord": 0
      },
      "occlusionTexture": {
        "index": 4,
        "strength": 1,
        "texCoord": 0
      },
      "pbrMetallicRoughness": {
        "baseColorFactor": [
          1,
          1,
          1,
          1
        ],
        "baseColorTexture": {
          "index": 3,
          "texCoord": 0
        },
        "metallicFactor": 1,
        "metallicRoughnessTexture": {
          "index": 4,
          "texCoord": 0
        },
        "roughnessFactor": 1
      }
    }
  ],
  "meshes": [
    {
      "name": "defaultMaterial",
      "primitives": [
        {
          "attributes": {
            "NORMAL": 1,
            "POSITION": 0,
            "TANGENT": 2,
            "TEXCOORD_0": 3
          },
          "indices": 4,
          "material": 1,
          "mode": 4
        }
      ]
    },
    {
      "name": "defaultMaterial",
      "primitives": [
        {
          "attributes": {
            "NORMAL": 6,
            "POSITION": 5,
            "TANGENT": 7,
            "TEXCOORD_0": 8
          },
          "indices": 9,
          "material": 0,
          "mode": 4
        }
      ]
    }
  ],
  "nodes": [
    {
      "children": [
        1
      ],
      "name": "RootNode (gltf orientation matrix)",
      "rotation": [
        -0.70710678118654746,
        -0,
        -0,
        0.70710678118654757
      ]
    },
    {
      "children": [
        2
      ],
      "matrix": [
        1,
        0,
        0,
        0,
        0,
        1,
        0,
        0,
        0,
        0,
        1,
        0,
        0,
        -4.1999999034203483e-09,
        4.6999999447905338e-09,
        1
      ],
      "name": "RootNode (model correction matrix)"
    },
    {
      "children": [
        3,
        5
      ],
      "matrix": [
        1,
        0,
        0,
        0,
        0,
        -4.3711390063094768e-08,
        0.999999999999999,
        0,
        0,
        -0.999999999999999,
        -4.3711390063094768e-08,
        0,
        0,
        0,
        0,
        1
      ],
      "name": "Collada visual scene group"
    },
    {
      "children": [
        4
      ],
      "name": "snitch_body"
    },
    {
      "mesh": 0,
      "name": "defaultMaterial"
    },
    {
      "children": [
        6
      ],
      "name": "Connect"
    },
    {
      "mesh": 1,
      "name": "defaultMaterial"
    }
  ],
  "samplers": [
    {
      "magFilter": 9729,
      "minFilter": 9987,
      "wrapS": 10497,
      "wrapT": 10497
    }
  ],
  "scene": 0,
  "scenes": [
    {
      "name": "OSG_Scene",
      "nodes": [
        0
      ]
    }
  ],
  "textures": [
    {
      "sampler": 0,
      "source": 0
    },
    {
      "sampler": 0,
      "source": 1
    },
    {
      "sampler": 0,
      "source": 2
    },
    {
      "sampler": 0,
      "source": 3
    },
    {
      "sampler": 0,
      "source": 4
    },
    {
      "sampler": 0,
      "source": 5
    }
  ]
}

